<?xml version="1.0" encoding="utf-8"?>
<!-- Generator: Adobe Illustrator 19.0.1, SVG Export Plug-In . SVG Version: 6.00 Build 0)  -->
<svg version="1.1" id="Layer_1" xmlns="http://www.w3.org/2000/svg" xmlns:xlink="http://www.w3.org/1999/xlink" x="0px" y="0px"
	 viewBox="0 0 1000 196" style="enable-background:new 0 0 1000 196;" xml:space="preserve">
<style type="text/css">
	.st0{fill:#67205D;}
</style>
<g>
	<path class="st0" d="M550.7,0.2c15.5,0,30.9,0.1,46.4,0c0,64.6-0.1,129.2,0,193.8c-7.3-0.2-14.7,0-22-0.1c0-57.9,0-115.8,0-173.7
		c-8.1-0.1-16.2,0-24.3,0C550.7,13.4,550.8,6.8,550.7,0.2L550.7,0.2z"/>
	<path class="st0" d="M291,52.7c7.2,0.1,14.5,0,21.8,0c0.4,21.4-1.3,43.1,2.7,64.2c3.7,19.2,11,37.8,22.6,53.6
		c2,2.7,4.3,5.2,6.6,7.6c19-20.7,28-48.6,30.8-76.1c0.8-16.4,0.3-32.9,0.4-49.3c7.3,0,14.7,0,22,0c-0.1,10.9,0,21.8,0,32.7
		c0.2,10.5-0.8,21-2.9,31.2c-4.7,21-12.9,41.4-24.8,59.4c-4.4,6.4-9,12.6-14.7,17.9c-8,0-16,0-24,0c-13.5-13.1-22.1-30.3-29.1-47.6
		c-6.5-17.1-10.9-35.1-11.4-53.4C291,79.4,291.1,66,291,52.7L291,52.7z"/>
	<path class="st0" d="M797.3,52.6c7.3,0.1,14.7,0,22,0.1c0,10,0,20,0,30c0.5-0.1,1.3-0.4,1.8-0.6c6-9.9,13.8-19.2,24.1-24.9
		c8.1-4.5,17.6-4.8,26.7-4.5c0,8,0,16,0,24c-7.2,0.2-14.6-0.7-21.6,1.6c-5.6,2-11.2,4.7-15.3,9c-5.2,5.2-10.4,10.4-15.6,15.6
		c0,30.3,0,60.6,0,90.9c-7.3,0-14.7-0.1-22,0.1C797.4,146.8,797.3,99.7,797.3,52.6L797.3,52.6z"/>
	<path class="st0" d="M205.8,131.2c8.8-0.1,17.8,0.5,26.5-1.7c7.1-1.7,13.8-5.2,18.9-10.5c5.9-6.3,9.2-14.8,9.8-23.4
		c0.9-10.3-1-21.2-7.4-29.6c-6-7.8-15.4-12.3-25-13.9c-17.3-3.4-36.2-1.3-51.1,8.5c-10.8,6.9-18.6,18.1-22,30.5
		c-3.3,11-2.8,22.5-2.8,33.9c0.1,9.2-0.3,18.6,1.2,27.7c2,12.1,7.9,23.9,17.9,31.3c10.2,7.9,23.3,11,35.9,11.7
		c15.7,1.1,31.1-3.1,45.6-8.7c0-6.8,0.1-13.5,0-20.3c-4.2,1.3-8.1,3.3-12.3,4.6c-13.1,4.3-27.3,6.3-41,3.4
		c-8.6-2.3-17.2-7.1-21.2-15.5c-4.7-8.6-4.2-18.6-4.2-28.1C185,131.2,195.4,131.2,205.8,131.2z M174.6,113.3
		c-0.1-9.9,1-20.3,6.6-28.8c3-5.2,8.1-8.8,13.5-11.2c0.9-0.3,1.7-0.6,2.6-0.9c9.4-2.2,19.3-2.9,28.7-0.5c5.3,1.5,10.3,5,12.3,10.4
		c2.2,6.1,1.6,12.8,0,18.9c-2.3,4.1-5.6,7.9-10.1,9.5c-4.4,1.9-9.3,2.3-14,2.6C201,113.3,187.8,113.3,174.6,113.3z"/>
	<path class="st0" d="M489.5,131.2c10.6,0.2,21.7-1,30.9-6.8c8.6-5.2,14.2-14.4,15.9-24.2c2-10.9,0.8-22.9-5.5-32.3
		c-5.8-8.7-15.8-14-25.9-15.7c-17.3-3.5-36.3-1.5-51.3,8.3c-11.2,7.1-19.1,18.8-22.5,31.6c-3.8,14-2,28.6-2.4,43
		c-0.4,14.4,1.9,29.8,11.3,41.4c10.2,13,27.1,18.4,43.1,19.2c15.7,1.2,31.3-3,45.9-8.5c0.4-6.8,0.6-13.7-0.1-20.5
		c-14,6.2-29.3,10.4-44.7,9.2c-11.2-0.6-23.2-5.5-28.9-15.7c-5.1-8.8-4.7-19.2-4.8-29C463.4,131.3,476.5,131.2,489.5,131.2z
		 M450.3,113.3c-0.1-11.9,1.9-24.7,10.5-33.6c7.7-7.8,19.2-9.3,29.7-9.3c3.4,0.1,6.8,0.7,10.3,1c5.5,1.6,10.9,5,13.2,10.4
		c2.5,6.5,1.9,13.8-0.3,20.3c-1.9,3.5-4.9,6.2-8.3,8.2c-5.1,1.9-10.4,2.9-15.8,2.9C476.4,113.3,463.4,113.2,450.3,113.3z"/>
	<path class="st0" d="M756.3,99c-2.8-14.9-10-29.8-22.9-38.4c-13.1-9.1-29.8-11-45.4-9.5c-5.8,0.7-11.5,2-16.8,4.2
		c-12,4.7-21.8,14.3-27.4,25.9c-7.2,15-8.9,32-8,48.4c1.2,17.3,4.7,35.6,16.5,49c8.1,9.5,20.3,14.8,32.5,16.4
		c15.3,2,31.8,0.7,45.2-7.5c12.2-7.2,19.9-20.2,23.9-33.5C759,136.2,759.7,117.2,756.3,99z M731.8,153.7
		c-3.6,9.2-10.9,17.3-20.5,20.4c-9.5,2.9-20,2.8-29.5-0.2c-8.2-3.1-14.7-9.5-18.4-17.4c-5.1-11.3-6-23.9-5.9-36.1
		c-0.1-8.7,0.6-17.6,3.2-25.9c0.3-1,0.6-2,0.8-3.1c0.1-0.1,0.3-0.3,0.5-0.3c2.8-7.1,7.9-13.3,14.8-16.5c11.2-5.6,24.3-4.8,36.1-2.2
		l-0.1,0.4c9.5,2.7,16.5,10.8,19.9,19.8c0.6,2.1,1.2,4.3,1.8,6.4C737.6,117,737.8,136.2,731.8,153.7z"/>
	<path class="st0" d="M112.9,0.2c-7.3,0-14.7,0.1-22-0.1c0.1,17.5-0.1,35.1,0.1,52.6c-9.6,0.1-19.3-0.5-28.9,1.1
		c-12.4,2-24.5,6.9-34.5,14.7C14.2,78.7,4.6,94,1.5,110.7c-2.1,10.8-1.4,21.8-1.5,32.7c0,10.8,0.8,21.9,5.7,31.7
		c3.6,7.8,10,14.4,18.1,17.6c12.9,4.9,27.9,3.8,40.1-2.7c10.7-5.5,18.7-14.6,27.1-22.9c0,8.9,0.1,17.8-0.1,26.7
		c7.3-0.2,14.7,0,22-0.1C112.9,129.3,112.9,64.7,112.9,0.2z M55,174c-6.3,2.4-13.2,2.9-19.6,0.9c-3.1-1.7-6.4-3.4-8.3-6.5
		c-5.2-7.5-5.1-17.1-5.1-25.9c0.2-11.8-1-23.8,2.4-35.2c0.3-0.9,0.6-1.8,0.9-2.6c4.8-13.3,15.6-24.3,29.1-28.8
		c11.7-4.5,24.4-2.9,36.6-3.2c0,24.3,0,48.7,0,73C80.4,156.6,69.4,168,55,174z"/>
	<path class="st0" d="M1000,52.7c-12.7,0-25.3,0-38,0c-12,0.1-24,2.7-34.8,8c-16.7,8-29.9,22.8-36,40.3c-5.2,14.5-4,30-4.1,45.1
		c0.1,12.4,2.1,25.5,9.7,35.7c6.8,9.4,18.7,13.9,30,13.9c14.8,0.6,29-6.6,39.4-16.8c4-3.6,7.3-7.9,11.8-11.1
		c0.2,8.7,0.1,17.4,0,26.1c7.3-0.1,14.7,0,22,0C999.9,146.8,1000,99.7,1000,52.7z M978,145.6c-7.7,7.7-15,15.9-24.2,21.9
		c-7.4,4.8-15.9,9.3-25,8.5c-7.5-0.2-14.6-5.2-17.2-12.3c-3.9-10.3-2.3-21.6-2.6-32.3c-0.3-10.4,0.5-21,4.9-30.6
		C918.4,91,926.3,82.8,936,78c6.4-2.8,13.3-4.9,20.4-5.2c7.2-0.4,14.4-0.1,21.7-0.2C978.1,96.9,978.1,121.3,978,145.6z"/>
</g>
</svg>
