<?xml version="1.0" encoding="utf-8"?>
<!-- Generator: Adobe Illustrator 19.0.1, SVG Export Plug-In . SVG Version: 6.00 Build 0)  -->
<svg version="1.1" xmlns="http://www.w3.org/2000/svg" xmlns:xlink="http://www.w3.org/1999/xlink" x="0px" y="0px"
	 viewBox="0 0 180 180" style="enable-background:new 0 0 180 180;" xml:space="preserve">
<style type="text/css">
	.st0{display:none;}
	.st1{display:inline;fill:none;stroke:#6E2D56;stroke-width:2;stroke-linecap:round;stroke-linejoin:round;stroke-miterlimit:10;}
	.st2{display:inline;fill:none;stroke:#DD4138;stroke-width:2;stroke-linecap:round;stroke-linejoin:round;stroke-miterlimit:10;}
	.st3{display:inline;}
	.st4{fill:none;stroke:#DD4138;stroke-width:2;stroke-linecap:round;stroke-linejoin:round;stroke-miterlimit:10;}
	.st5{fill:#DD4138;}
	.st6{fill:none;stroke:#6E2D56;stroke-width:2;stroke-linecap:round;stroke-linejoin:round;stroke-miterlimit:10;}
</style>
<g id="STROKE" class="st0">
	<rect id="XMLID_1_" x="-23.8" class="st1" width="17.5" height="17.5"/>
	<rect id="XMLID_3_" x="-23.8" y="26.2" class="st2" width="17.5" height="17.5"/>
</g>
<g id="discover" class="st0">
	<line id="XMLID_33_" class="st1" x1="90" y1="124.7" x2="90" y2="156"/>
	<line id="XMLID_19_" class="st1" x1="90" y1="24" x2="90" y2="55.3"/>
	<line id="XMLID_30_" class="st1" x1="55.3" y1="90" x2="24" y2="90"/>
	<line id="XMLID_34_" class="st1" x1="155.9" y1="90" x2="124.7" y2="90"/>
	<line id="XMLID_20_" class="st1" x1="65.3" y1="65.3" x2="43.1" y2="43.1"/>
	<line id="XMLID_35_" class="st1" x1="136.6" y1="136.6" x2="114.4" y2="114.4"/>
	<line id="XMLID_31_" class="st1" x1="114.4" y1="65.6" x2="136.8" y2="43.2"/>
	<line id="XMLID_32_" class="st1" x1="43.6" y1="136.4" x2="65.5" y2="114.5"/>
	<circle id="XMLID_23_" class="st1" cx="90" cy="12.5" r="11.5"/>
	<circle id="XMLID_22_" class="st1" cx="144.5" cy="35" r="11.5"/>
	<circle id="XMLID_29_" class="st1" cx="35.1" cy="35" r="11.5"/>
	<circle id="XMLID_24_" class="st1" cx="167.5" cy="90" r="11.5"/>
	<circle id="XMLID_28_" class="st1" cx="12.5" cy="90" r="11.5"/>
	<circle id="XMLID_25_" class="st1" cx="144.5" cy="145.2" r="11.5"/>
	<circle id="XMLID_26_" class="st1" cx="90" cy="167.5" r="11.5"/>
	<circle id="XMLID_27_" class="st1" cx="35.1" cy="144.5" r="11.5"/>
	<circle id="XMLID_2_" class="st2" cx="90" cy="90" r="34.7"/>
	<polyline id="XMLID_17_" class="st2" points="67.1,93.7 81.5,109.6 112.9,72.8 	"/>
</g>
<g id="interface" class="st0">
	<line id="XMLID_21_" class="st1" x1="10" y1="29" x2="77.7" y2="29"/>
	<circle id="XMLID_36_" class="st1" cx="25.2" cy="19.5" r="3.9"/>
	<circle id="XMLID_39_" class="st1" cx="45.2" cy="19.5" r="3.9"/>
	<circle id="XMLID_40_" class="st1" cx="65.1" cy="19.5" r="3.9"/>
	<circle id="XMLID_52_" class="st1" cx="29.7" cy="146.9" r="6.9"/>
	<line id="XMLID_51_" class="st1" x1="45.4" y1="144.4" x2="61.2" y2="144.4"/>
	<line id="XMLID_50_" class="st1" x1="45.4" y1="149.3" x2="61.2" y2="149.3"/>
	<circle id="XMLID_44_" class="st1" cx="77.7" cy="146.9" r="6.9"/>
	<line id="XMLID_43_" class="st1" x1="93.5" y1="144.4" x2="109.2" y2="144.4"/>
	<line id="XMLID_41_" class="st1" x1="93.5" y1="149.3" x2="109.2" y2="149.3"/>
	<circle id="XMLID_54_" class="st1" cx="125.7" cy="146.9" r="6.9"/>
	<line id="XMLID_48_" class="st1" x1="141.5" y1="144.4" x2="157.2" y2="144.4"/>
	<line id="XMLID_45_" class="st1" x1="141.5" y1="149.3" x2="157.2" y2="149.3"/>
	<line id="XMLID_49_" class="st1" x1="22.8" y1="166" x2="157.2" y2="166"/>
	<line id="XMLID_38_" class="st1" x1="22.8" y1="43.8" x2="77.7" y2="43.8"/>
	<polyline id="XMLID_60_" class="st1" points="157.2,73.7 157.2,129 22.8,129 22.8,57 77.7,57 	"/>
	<path id="XMLID_37_" class="st2" d="M173.7,1h-82c-3,0-5.3,2.4-5.3,5.3V61c0,2.9,2.3,5.3,5.2,5.3l9.5,0.3l-6.6,13l23.7-13.4h55.5
		c3,0,5.3-2.4,5.3-5.3V6.3C179,3.4,176.6,1,173.7,1z"/>
	<g id="XMLID_56_" class="st3">
		<path id="XMLID_53_" class="st4" d="M121.8,39.3l41.9-26.4c0.3-0.2,0.8-0.1,1,0.2v0c0.2,0.3,0.2,0.8-0.2,1l-39,30.5"/>
		<g id="XMLID_58_">
			<path id="XMLID_59_" class="st4" d="M124.4,43c-1.1-3-4.2-4.8-7.3-3.9c-2.1,0.6-4.4,2.1-6.6,4.7c-4.3,4.9-9.3,5.8-10.1,5.4
				c3.7,2.9,14.7,10.7,23.1-0.6C124.8,47,125.1,44.9,124.4,43C124.5,43,124.5,43,124.4,43z"/>
		</g>
	</g>
	<line id="XMLID_18_" class="st1" x1="22.8" y1="57" x2="157.2" y2="129"/>
	<line id="XMLID_47_" class="st1" x1="126.4" y1="73.5" x2="22.8" y2="129"/>
</g>
<g id="code">
	<g id="XMLID_62_">
		<path id="XMLID_141_" class="st5" d="M48,106.8c0.3,0,0.7,0.1,1,0.2l5,2c1.4,0.6,2.2,2.2,1.6,3.7l-1.6,4c-0.3,0.8-0.1,1.8,0.7,2.4
			c2.3,1.6,4.3,3.6,5.9,5.8c0.4,0.5,1,0.8,1.6,0.8c0.3,0,0.5-0.1,0.8-0.2l3.9-1.7c0.4-0.2,0.7-0.2,1.1-0.2c1.1,0,2.2,0.7,2.6,1.7
			l2.1,5c0.3,0.7,0.3,1.5,0,2.2c-0.3,0.7-0.8,1.3-1.5,1.6l-3.9,1.7c-0.8,0.4-1.3,1.2-1.2,2.1c0.4,2.8,0.5,5.6,0.1,8.3
			c-0.1,0.9,0.4,1.8,1.2,2.1l4,1.6c1.5,0.6,2.2,2.2,1.6,3.7l-2,5c-0.3,0.7-0.8,1.3-1.5,1.6c-0.4,0.2-0.7,0.2-1.1,0.2
			c-0.4,0-0.7-0.1-1.1-0.2l-4-1.6c-0.2-0.1-0.5-0.1-0.7-0.1c-0.6,0-1.2,0.3-1.6,0.8c-1.6,2.2-3.6,4.2-5.8,5.9
			c-0.7,0.6-1,1.5-0.6,2.4l1.7,3.9c0.3,0.7,0.3,1.5,0,2.2c-0.3,0.7-0.8,1.3-1.5,1.6l-5,2.1c-0.4,0.2-0.7,0.2-1.1,0.2
			c-1.1,0-2.2-0.7-2.6-1.7l-1.7-3.9c-0.3-0.7-1-1.2-1.8-1.2c-0.1,0-0.2,0-0.3,0c-1.5,0.2-3,0.3-4.4,0.3c-1.3,0-2.6-0.1-3.9-0.3
			c-0.1,0-0.2,0-0.3,0c-0.8,0-1.5,0.5-1.9,1.3l-1.6,4c-0.3,0.7-0.8,1.3-1.5,1.5c-0.4,0.2-0.7,0.2-1.1,0.2c-0.4,0-0.7-0.1-1.1-0.2
			l-5-2c-0.7-0.3-1.3-0.8-1.6-1.5c-0.3-0.7-0.3-1.5,0-2.2l1.6-4c0.3-0.9,0.1-1.8-0.7-2.4c-2.3-1.6-4.3-3.6-5.9-5.8
			c-0.4-0.5-1-0.8-1.6-0.8c-0.3,0-0.5,0.1-0.8,0.2l-3.9,1.7c-0.4,0.2-0.7,0.2-1.1,0.2c-1.1,0-2.2-0.7-2.6-1.7l-2.1-5
			c-0.6-1.4,0.1-3.1,1.5-3.7l3.9-1.7c0.8-0.4,1.3-1.2,1.2-2.2c-0.4-2.8-0.5-5.6-0.1-8.3c0.1-0.9-0.4-1.8-1.2-2.1l-4-1.6
			c-0.7-0.3-1.2-0.8-1.5-1.5c-0.3-0.7-0.3-1.5,0-2.2l2-5c0.4-1,1.5-1.8,2.7-1.8c0.3,0,0.7,0.1,1,0.2l4,1.6c0.2,0.1,0.5,0.1,0.7,0.1
			c0.6,0,1.2-0.3,1.6-0.8c1.6-2.3,3.6-4.3,5.8-5.9c0.7-0.6,1-1.5,0.6-2.4l-1.7-3.9c-0.6-1.4,0.1-3.1,1.5-3.7l5-2.1
			c0.4-0.2,0.7-0.2,1.1-0.2c1.1,0,2.2,0.7,2.6,1.7l1.7,3.9c0.3,0.7,1,1.2,1.8,1.2c0.1,0,0.2,0,0.3,0c1.5-0.2,3-0.3,4.4-0.3
			c1.3,0,2.6,0.1,3.9,0.3c0.1,0,0.2,0,0.3,0c0.8,0,1.5-0.5,1.9-1.3l1.6-4C45.7,107.5,46.8,106.8,48,106.8 M37.8,161.2
			c2.6,0,5.1-0.5,7.4-1.5c9.6-4.1,14.1-15.3,10-24.9c-2.9-6.8-9.5-11.3-16.9-11.5c-0.2,0-0.4,0-0.5,0c-2.6,0-5.1,0.5-7.4,1.5
			c-9.6,4.1-14.1,15.3-10,24.9c2.9,6.8,9.5,11.3,16.9,11.5C37.4,161.2,37.6,161.2,37.8,161.2 M48,104.8c-1.9,0-3.8,1.2-4.6,3l-1.6,4
			c-1.4-0.2-2.7-0.3-4.1-0.3c-1.6,0-3.2,0.1-4.8,0.4l-1.7-3.9c-0.8-1.8-2.6-2.9-4.5-2.9c-0.6,0-1.3,0.1-1.9,0.4l-5,2.1
			c-2.5,1-3.6,3.9-2.5,6.3l1.7,3.9c-2.4,1.8-4.5,4-6.2,6.4l-4-1.6c-0.6-0.2-1.1-0.3-1.7-0.3c-1.9,0-3.8,1.2-4.6,3l-2,5
			c-0.5,1.2-0.5,2.5,0,3.7c0.5,1.2,1.5,2.1,2.6,2.6l4,1.6c-0.4,2.9-0.4,5.9,0.1,8.9l-3.9,1.7c-2.5,1-3.6,3.9-2.5,6.3l2.1,5
			c0.8,1.8,2.6,2.9,4.5,2.9c0.6,0,1.3-0.1,1.9-0.4l3.9-1.7c1.8,2.4,4,4.5,6.4,6.2l-1.6,4c-0.5,1.2-0.5,2.5,0,3.7
			c0.5,1.2,1.4,2.1,2.6,2.6l5,2c0.6,0.2,1.2,0.4,1.8,0.4c0.6,0,1.3-0.1,1.9-0.4c1.2-0.5,2.1-1.4,2.6-2.6l1.6-4
			c1.4,0.2,2.7,0.3,4.1,0.3c1.6,0,3.2-0.1,4.7-0.4l1.7,3.9c0.8,1.8,2.6,2.9,4.5,2.9c0.6,0,1.3-0.1,1.9-0.4l5-2.1
			c2.5-1,3.6-3.9,2.5-6.3l-1.7-3.9c2.4-1.8,4.5-4,6.2-6.4l4,1.6c0.6,0.2,1.2,0.3,1.8,0.3c0.6,0,1.3-0.1,1.9-0.4
			c1.2-0.5,2.1-1.4,2.6-2.6l2-5c1-2.5-0.2-5.3-2.7-6.3l-4-1.6c0.4-2.9,0.4-5.9-0.1-8.9l3.9-1.7c2.5-1,3.6-3.9,2.5-6.3l-2.1-5
			c-0.8-1.8-2.6-2.9-4.5-2.9c-0.6,0-1.3,0.1-1.9,0.4l-3.9,1.7c-1.8-2.4-4-4.5-6.4-6.2l1.6-4c1-2.5-0.2-5.3-2.7-6.3l-5-2
			C49.2,104.9,48.6,104.8,48,104.8L48,104.8z M37.8,159.2c-0.2,0-0.3,0-0.5,0c-6.6-0.2-12.5-4.2-15.1-10.3
			c-3.7-8.6,0.3-18.6,8.9-22.3c2.1-0.9,4.4-1.4,6.6-1.4c0.2,0,0.3,0,0.5,0c6.6,0.2,12.5,4.2,15.1,10.3c3.7,8.6-0.3,18.6-8.9,22.3
			C42.3,158.7,40.1,159.2,37.8,159.2L37.8,159.2z"/>
	</g>
	<polyline id="XMLID_46_" class="st6" points="10,114 10,1 170,1 170,179 65.5,179 	"/>
	<line id="XMLID_42_" class="st6" x1="90" y1="1" x2="90" y2="179"/>
	<g id="XMLID_61_">
		<polyline id="XMLID_57_" class="st6" points="40.1,42.5 23.9,62 40.1,81.7 		"/>
		<polyline id="XMLID_65_" class="st6" points="59.2,42.5 75.4,62 59.2,81.7 		"/>
	</g>
	<rect id="XMLID_66_" x="102" y="13.8" class="st6" width="55" height="32.8"/>
	<line id="XMLID_67_" class="st6" x1="102" y1="58" x2="116" y2="58"/>
	<line id="XMLID_69_" class="st6" x1="143" y1="58" x2="157" y2="58"/>
	<line id="XMLID_70_" class="st6" x1="122.5" y1="58" x2="136.5" y2="58"/>
	<line id="XMLID_73_" class="st6" x1="102" y1="66.5" x2="116" y2="66.5"/>
	<line id="XMLID_72_" class="st6" x1="143" y1="66.5" x2="157" y2="66.5"/>
	<line id="XMLID_71_" class="st6" x1="122.5" y1="66.5" x2="136.5" y2="66.5"/>
	<line id="XMLID_76_" class="st6" x1="102" y1="75" x2="116" y2="75"/>
	<line id="XMLID_75_" class="st6" x1="143" y1="75" x2="157" y2="75"/>
	<line id="XMLID_74_" class="st6" x1="122.5" y1="75" x2="136.5" y2="75"/>
	<line id="XMLID_79_" class="st6" x1="102" y1="83.5" x2="116" y2="83.5"/>
	<line id="XMLID_78_" class="st6" x1="143" y1="83.5" x2="157" y2="83.5"/>
	<line id="XMLID_77_" class="st6" x1="122.5" y1="83.5" x2="136.5" y2="83.5"/>
	<line id="XMLID_82_" class="st6" x1="102" y1="92" x2="116" y2="92"/>
	<line id="XMLID_81_" class="st6" x1="143" y1="92" x2="157" y2="92"/>
	<line id="XMLID_80_" class="st6" x1="122.5" y1="92" x2="136.5" y2="92"/>
	<line id="XMLID_85_" class="st6" x1="102" y1="100.5" x2="116" y2="100.5"/>
	<line id="XMLID_84_" class="st6" x1="143" y1="100.5" x2="157" y2="100.5"/>
	<line id="XMLID_83_" class="st6" x1="122.5" y1="100.5" x2="136.5" y2="100.5"/>
	<line id="XMLID_89_" class="st6" x1="102" y1="109" x2="116" y2="109"/>
	<line id="XMLID_88_" class="st6" x1="143" y1="109" x2="157" y2="109"/>
	<line id="XMLID_87_" class="st6" x1="122.5" y1="109" x2="136.5" y2="109"/>
	<line id="XMLID_97_" class="st6" x1="102" y1="117.5" x2="116" y2="117.5"/>
	<line id="XMLID_91_" class="st6" x1="143" y1="117.5" x2="157" y2="117.5"/>
	<line id="XMLID_90_" class="st6" x1="122.5" y1="117.5" x2="136.5" y2="117.5"/>
	<line id="XMLID_100_" class="st6" x1="102" y1="126" x2="116" y2="126"/>
	<line id="XMLID_99_" class="st6" x1="143" y1="126" x2="157" y2="126"/>
	<line id="XMLID_98_" class="st6" x1="122.5" y1="126" x2="136.5" y2="126"/>
	<line id="XMLID_103_" class="st6" x1="102" y1="134.5" x2="116" y2="134.5"/>
	<line id="XMLID_102_" class="st6" x1="143" y1="134.5" x2="157" y2="134.5"/>
	<line id="XMLID_101_" class="st6" x1="122.5" y1="134.5" x2="136.5" y2="134.5"/>
	<line id="XMLID_106_" class="st6" x1="102" y1="143" x2="116" y2="143"/>
	<line id="XMLID_105_" class="st6" x1="143" y1="143" x2="157" y2="143"/>
	<line id="XMLID_104_" class="st6" x1="122.5" y1="143" x2="136.5" y2="143"/>
	<line id="XMLID_109_" class="st6" x1="102" y1="151.5" x2="116" y2="151.5"/>
	<line id="XMLID_108_" class="st6" x1="143" y1="151.5" x2="157" y2="151.5"/>
	<line id="XMLID_107_" class="st6" x1="122.5" y1="151.5" x2="136.5" y2="151.5"/>
	<line id="XMLID_112_" class="st6" x1="102" y1="160" x2="116" y2="160"/>
	<line id="XMLID_111_" class="st6" x1="143" y1="160" x2="157" y2="160"/>
	<line id="XMLID_110_" class="st6" x1="122.5" y1="160" x2="136.5" y2="160"/>
	<line id="XMLID_115_" class="st6" x1="102" y1="168.5" x2="116" y2="168.5"/>
	<line id="XMLID_114_" class="st6" x1="143" y1="168.5" x2="157" y2="168.5"/>
	<line id="XMLID_113_" class="st6" x1="122.5" y1="168.5" x2="136.5" y2="168.5"/>
	<line id="XMLID_68_" class="st6" x1="10" y1="13.8" x2="90" y2="13.8"/>
</g>
<g id="deploy" class="st0">
	<path id="XMLID_131_" class="st2" d="M82.6,141.4c-1.1,5.1,2.5,12.7,7.6,15.8c4.6-3.8,8.6-10.4,7.3-15.8"/>
	<g id="XMLID_133_" class="st3">
		<path id="XMLID_135_" class="st4" d="M76.2,141.4c-8.8,10,3.1,28.4,5.7,30.3c-0.8-1.9-1-5,0.7-6.5c2.9,11,10.1,13.3,10.1,13.3
			c-0.8-5.7,3.1-11.9,6.9-16.5c0.1,2.3,0.3,3.8,1.5,6c0.3-4.1,11-17.6,2.8-26.5"/>
	</g>
	<g id="XMLID_132_" class="st3">
		<path id="XMLID_138_" class="st4" d="M114.5,158c18.4,0,30.4,0,30.4,0c17.3,0,31.4-14.1,31.4-31.4c0-17.3-14-31.4-31.4-31.4
			c0,0-0.1,0-0.1,0c-0.7-10.9-5.5-20.6-12.9-27.7"/>
		<path id="XMLID_134_" class="st4" d="M49.6,91.8c-10.5,3.4-18.7,11.8-21.9,22.4c-0.6-0.1-1.3-0.1-2-0.1
			c-12.1,0-21.9,9.8-21.9,21.9c0,12.1,9.8,21.9,21.9,21.9c0.1,0,16.6,0,39.9,0"/>
	</g>
	<g id="XMLID_127_" class="st3">
		<path id="XMLID_119_" class="st6" d="M115.8,95.4c4.9-19.3,4.2-31.4,4.2-31.4c0.3-31.3-16.8-52.3-25.5-60.9c-1.3-1.3-3.1-2-5-2
			c-1.9,0-3.6,0.8-4.9,2.1c-8.5,8.7-24.9,29.6-24.6,60.8c0,0-0.6,12.1,4.2,31.4c-8.5,6.7-21.7,22.2-11.6,49.4c0.7,2,2.5,3.4,4.6,3.5
			c2.1,0.2,4.1-0.8,5.2-2.7c3.1-5.3,8-11.3,15-14.1l-1.3,9.9h27.6l-1.3-10c7,2.9,11.8,8.8,15,14.2c1.1,1.8,3.1,2.8,5.2,2.7
			c2.1-0.2,3.9-1.6,4.6-3.5C137.4,117.6,124.3,102.1,115.8,95.4z"/>
		<path id="XMLID_117_" class="st6" d="M64.3,95.3c5,19,9.4,30.2,13.2,36.1"/>
		<path id="XMLID_120_" class="st6" d="M115.8,95.3c-5,19-9.4,30.2-13.2,36.1"/>
		<line id="XMLID_118_" class="st6" x1="77.5" y1="131.5" x2="102.6" y2="131.5"/>
		<line id="XMLID_121_" class="st6" x1="77.8" y1="136.6" x2="102.6" y2="136.6"/>
		<path id="XMLID_122_" class="st6" d="M114.3,104.6c8.1,8.9,10.2,15.6,7.5,33.1"/>
		<path id="XMLID_126_" class="st6" d="M65.4,104.6c-8.1,8.9-10.2,15.6-7.5,33.1"/>
		<g id="XMLID_130_">
			<circle id="XMLID_116_" class="st6" cx="90" cy="37.9" r="9.4"/>
			<circle id="XMLID_123_" class="st6" cx="90" cy="71.3" r="9.4"/>
			<circle id="XMLID_124_" class="st6" cx="90" cy="104.7" r="9.4"/>
		</g>
	</g>
</g>
</svg>
